<?xml version="1.0" encoding="UTF-8" standalone="no"?>
<!DOCTYPE svg PUBLIC "-//W3C//DTD SVG 1.1//EN" "http://www.w3.org/Graphics/SVG/1.1/DTD/svg11.dtd">
<svg width="100%" height="100%" viewBox="0 0 32 32" version="1.1" xmlns="http://www.w3.org/2000/svg" xmlns:xlink="http://www.w3.org/1999/xlink" xml:space="preserve" xmlns:serif="http://www.serif.com/" style="fill-rule:evenodd;clip-rule:evenodd;stroke-linecap:round;stroke-linejoin:round;stroke-miterlimit:1.5;">
    <g transform="matrix(0.893205,0,0,0.893205,1.59531,-0.623528)">
        <path d="M6.27,11.365L5.556,11.365C5.258,11.365 5.016,11.123 5.016,10.825L5.016,9.746C5.016,9.448 5.258,9.206 5.556,9.206L26.698,9.206C26.996,9.206 27.238,9.448 27.238,9.746L27.238,10.825C27.238,11.123 26.996,11.365 26.698,11.365L25.73,11.365L21.428,28.572C21.177,29.579 20.272,30.286 19.234,30.286C17.365,30.286 14.44,30.286 12.626,30.286C11.67,30.286 10.837,29.635 10.606,28.708L6.27,11.365ZM19.746,7.476C19.746,7.178 19.504,6.937 19.206,6.937L12.921,6.937C12.623,6.937 12.381,7.178 12.381,7.476L12.381,8.556C12.381,8.853 12.623,9.095 12.921,9.095L19.206,9.095C19.504,9.095 19.746,8.853 19.746,8.556L19.746,7.476Z" style="fill:rgb(255,2,0);stroke:rgb(255,3,0);stroke-width:1.12px;"/>
    </g>
</svg>
