<?xml version="1.0" encoding="UTF-8" standalone="no"?><!DOCTYPE svg PUBLIC "-//W3C//DTD SVG 1.1//EN" "http://www.w3.org/Graphics/SVG/1.1/DTD/svg11.dtd"><svg width="100%" height="100%" viewBox="0 0 800 800" version="1.1" xmlns="http://www.w3.org/2000/svg" xmlns:xlink="http://www.w3.org/1999/xlink" xml:space="preserve" xmlns:serif="http://www.serif.com/" style="fill-rule:evenodd;clip-rule:evenodd;stroke-linecap:round;stroke-linejoin:round;stroke-miterlimit:1.5;"><g><path d="M224.642,71.553c-0,-22.979 -18.656,-41.635 -41.634,-41.635l-83.269,0c-22.978,0 -41.634,18.656 -41.634,41.635l-0,656.894c-0,22.979 18.656,41.635 41.634,41.635l83.269,-0c22.978,-0 41.634,-18.656 41.634,-41.635l-0,-656.894Z" style="fill:none;stroke:#256ce1;stroke-width:29.17px;"/><path d="M189.039,241.276c-0,-18.224 -14.796,-33.02 -33.02,-33.02l-28.037,0c-18.224,0 -33.02,14.796 -33.02,33.02l-0,317.448c-0,18.224 14.796,33.02 33.02,33.02l28.037,-0c18.224,-0 33.02,-14.796 33.02,-33.02l-0,-317.448Z" style="fill:none;stroke:#256ce1;stroke-width:16.67px;"/></g><g><path d="M483.268,71.553c0,-22.979 -18.655,-41.635 -41.634,-41.635l-83.268,0c-22.979,0 -41.634,18.656 -41.634,41.635l-0,656.894c-0,22.979 18.655,41.635 41.634,41.635l83.268,-0c22.979,-0 41.634,-18.656 41.634,-41.635l0,-656.894Z" style="fill:none;stroke:#256ce1;stroke-width:29.17px;"/><path d="M447.665,241.276c0,-18.224 -14.795,-33.02 -33.02,-33.02l-28.036,0c-18.225,0 -33.02,14.796 -33.02,33.02l-0,317.448c-0,18.224 14.795,33.02 33.02,33.02l28.036,-0c18.225,-0 33.02,-14.796 33.02,-33.02l0,-317.448Z" style="fill:none;stroke:#256ce1;stroke-width:16.67px;"/></g><g><path d="M744.514,71.553c-0,-22.979 -18.656,-41.635 -41.635,-41.635l-83.268,0c-22.978,0 -41.634,18.656 -41.634,41.635l-0,656.894c-0,22.979 18.656,41.635 41.634,41.635l83.268,-0c22.979,-0 41.635,-18.656 41.635,-41.635l-0,-656.894Z" style="fill:none;stroke:#256ce1;stroke-width:29.17px;"/><path d="M708.911,241.276c-0,-18.224 -14.796,-33.02 -33.02,-33.02l-28.037,0c-18.224,0 -33.02,14.796 -33.02,33.02l-0,317.448c-0,18.224 14.796,33.02 33.02,33.02l28.037,-0c18.224,-0 33.02,-14.796 33.02,-33.02l-0,-317.448Z" style="fill:none;stroke:#256ce1;stroke-width:16.67px;"/></g></svg>